<svg width="65" height="95" viewBox="0 0 65 95" fill="none" xmlns="http://www.w3.org/2000/svg">
<path d="M32.6993 10.0019C21.3101 10.0019 11.9306 18.6002 10.6342 29.6734C10.5687 30.2327 10.5196 30.7956 10.4932 31.3649C10.4694 31.878 10.8859 32.2946 11.3973 32.2946H14.7727C15.2841 32.2946 15.6963 31.8778 15.7289 31.3652C15.7653 30.7937 15.8325 30.2307 15.9186 29.6734C17.1788 21.507 24.2034 15.2442 32.6993 15.2442C42.0863 15.2442 49.6919 22.8802 49.6919 32.2946C49.6919 41.7092 42.0863 49.3368 32.6993 49.3368H7.19976C6.47251 49.3368 6.03381 50.1375 6.45 50.7364C7.32281 51.9925 8.28144 53.1846 9.32046 54.2998C9.49276 54.4847 9.73452 54.5875 9.98669 54.5875H32.6993C44.9747 54.5875 54.9273 44.6061 54.927 32.2946C54.927 19.9833 44.9747 10.0019 32.6993 10.0019Z" fill="#F9FAFC"/>
<path d="M32.6993 0.251709C22.748 0.251709 13.8553 4.79715 7.97998 11.9371C3.88491 16.913 1.33472 23.1939 0.806879 29.6245C0.805315 29.641 0.799844 29.6567 0.798542 29.6734C0.753303 30.2349 0.712001 30.7976 0.688524 31.3649C0.667286 31.878 1.08284 32.2946 1.59424 32.2946H4.96964C5.48104 32.2946 5.89398 31.8781 5.9125 31.3648C5.933 30.7967 5.97167 30.2339 6.02588 29.6734C7.34216 16.06 18.7801 5.41253 32.6993 5.41253C47.502 5.41253 59.503 17.4486 59.503 32.2946C59.503 47.1408 47.502 59.1768 32.6993 59.1766H18.1374C17.2192 59.1766 16.894 60.323 17.7059 60.7538C21.7259 62.8868 26.2558 64.1752 31.0628 64.4192H32.6993C49.2846 64.4192 62.9188 51.7771 64.5592 35.5774C64.6657 34.5243 64.7275 33.4571 64.7301 32.3763C64.7301 31.2674 64.6686 30.1654 64.5592 29.0854C62.9188 12.8857 49.2846 0.251709 32.6993 0.251709Z" fill="#F9FAFC"/>
<path d="M32.6993 19.8336C26.7385 19.8336 21.7707 24.0558 20.5675 29.6734C20.4491 30.2265 20.3604 30.7902 20.3131 31.3657C20.2709 31.8775 20.6889 32.2946 21.2003 32.2946H24.5838C25.0952 32.2946 25.5036 31.8764 25.5724 31.3674C25.652 30.7778 25.805 30.2113 26.0147 29.6734C27.0619 26.9892 29.6517 25.084 32.6993 25.0843C36.6708 25.0843 39.8886 28.3114 39.8888 32.2946C39.8888 36.2777 36.6708 39.5048 32.6993 39.5051H6.86415C6.66646 38.7794 6.48277 38.0245 6.27513 37.3013C6.12932 36.7934 5.67474 36.4425 5.21224 36.4425H1.86572C1.40882 36.4425 1.00099 36.9766 1.08894 37.4826C1.51237 39.7469 2.01885 42.1143 2.93212 44.2376C3.07482 44.5694 3.42409 44.7477 3.75173 44.7477H32.6993C39.559 44.7477 45.1159 39.1745 45.1159 32.2946C45.1159 25.4149 39.559 19.8336 32.6993 19.8336Z" fill="#F9FAFC"/>
<path d="M1.99598 77.9878C3.86287 76.5754 6.65689 76.7326 8.63808 77.8299C8.68502 77.8559 8.71351 77.9053 8.71351 77.9588V79.9116C8.71351 80.0211 8.59893 80.0937 8.49761 80.0511C7.7037 79.7176 6.81395 79.5509 5.82849 79.5509C4.39404 79.5509 3.67689 79.8997 3.67689 80.597C3.67689 81.4985 5.11824 81.772 5.77951 81.9412C7.04472 82.2645 8.26828 82.7261 9.02522 83.8449C9.43691 84.4531 9.64268 85.2275 9.64268 86.1681C9.64268 88.6437 7.16619 89.8052 4.98491 89.8052C3.58063 89.8052 2.28582 89.4787 1.10035 88.8259C1.0531 88.7999 1.02409 88.7501 1.02409 88.6964V86.3985C1.02409 86.2792 1.15804 86.2075 1.26017 86.2698C2.29232 86.8994 3.39129 87.2142 4.55709 87.2142C5.44739 87.2142 6.6353 87.1658 6.6353 86.0222C6.6353 85.0907 5.22258 84.7551 4.52642 84.5565C3.33081 84.2153 2.08461 83.855 1.28682 82.8413C0.164757 81.4154 0.586249 79.0544 1.99598 77.9878Z" fill="#F9FAFC"/>
<path d="M46.752 89.6106C46.6692 89.6106 46.602 89.5437 46.602 89.4613V78.3922C46.602 78.3347 46.635 78.2822 46.6875 78.2583C46.882 78.1697 47.1347 78.0674 47.4456 77.9514C49.0788 77.3421 50.9484 77.0316 52.6846 76.9875C52.7683 76.9853 52.8368 77.0526 52.8368 77.136V79.4279C52.8368 79.5096 52.7707 79.5761 52.6887 79.5778C51.5464 79.6016 50.5561 79.7284 49.7177 79.9584C49.6534 79.976 49.6094 80.0346 49.6094 80.101V89.4613C49.6094 89.5437 49.5423 89.6106 49.4594 89.6106H46.752Z" fill="#F9FAFC"/>
<path d="M27.8467 76.9858C24.1997 76.9858 22.4187 80.4113 22.4187 83.6583C22.4187 87.1545 24.3999 89.7404 28.0568 89.7404C28.5985 89.7329 29.1684 89.6731 29.7704 89.5646C29.8632 89.5479 29.9493 89.6184 29.9493 89.7124C29.9493 90.0908 29.9861 90.4949 29.8906 90.8642C29.6317 91.871 28.5413 92.0175 27.6618 92.0683C27.5819 92.073 27.519 92.1385 27.519 92.2182V94.5999C27.519 94.6834 27.5878 94.7508 27.6716 94.7483C29.9225 94.6819 32.3544 93.7561 32.849 91.3459C32.9224 90.9891 32.9567 90.6096 32.9567 90.2123V81.0729C32.9567 78.2175 30.3916 76.9858 27.8467 76.9858ZM27.8467 79.6471C27.8548 79.6471 27.8695 79.6471 27.8858 79.6471C29.2631 79.6471 29.9493 80.1094 29.9493 81.0339V86.9995C29.9493 87.071 29.8984 87.1326 29.8278 87.1453C29.2802 87.2437 28.7238 87.2929 28.1546 87.2929C25.9602 87.2929 25.4261 85.6305 25.4261 83.707C25.4261 82.0541 25.7776 79.6471 27.8467 79.6471Z" fill="#F9FAFC"/>
<path d="M12.9581 77.3398C12.8935 77.3573 12.849 77.4161 12.849 77.4828V79.6079C12.849 79.7062 12.9427 79.7777 13.0386 79.7542C13.811 79.5652 14.66 79.4671 15.5971 79.4671C17.2994 79.4671 18.1846 80.1897 18.2487 81.6394C18.2527 81.7304 18.1713 81.8006 18.0806 81.7883C16.5997 81.5871 15.012 81.5204 13.5679 81.9631C11.9239 82.4671 10.673 83.8013 10.673 85.5492C10.673 88.5325 13.3775 89.8065 16.0275 89.8065C18.6029 89.8065 21.2842 88.5247 21.2842 85.6221V82.2649C21.2842 80.5538 20.8115 79.2425 19.8662 78.3383C18.1178 76.6663 15.1587 76.7445 12.9581 77.3398ZM16.4773 83.5542C16.9438 83.5618 17.5017 83.6065 18.1475 83.6924C18.2217 83.7022 18.2769 83.7654 18.2769 83.8399V85.2816C18.2769 86.5385 17.5272 87.1646 16.0275 87.1646C16.0193 87.1646 16.0112 87.1646 16.003 87.1646C14.4301 87.1646 13.6411 86.4996 13.6411 85.1696C13.6494 84.0911 14.5947 83.5542 16.4773 83.5542Z" fill="#F9FAFC"/>
<path d="M36.5621 77.3398C36.4974 77.3573 36.4531 77.416 36.4531 77.4827V79.6079C36.4531 79.7062 36.5468 79.7777 36.6426 79.7542C37.4155 79.5652 38.2688 79.4671 39.206 79.4671C40.9083 79.4671 41.789 80.1897 41.8528 81.6394C41.8568 81.7304 41.7753 81.8006 41.6847 81.7883C40.2049 81.5873 38.6197 81.5208 37.1768 81.9631C35.5162 82.4722 34.2769 83.7816 34.2769 85.5492C34.2769 88.529 36.9862 89.8065 39.6315 89.8065C42.2115 89.8065 44.8883 88.5282 44.8883 85.6221V82.2649C44.8883 80.5538 44.4156 79.2425 43.4701 78.3383C41.7221 76.6664 38.7625 76.7434 36.5621 77.3398ZM40.0862 83.5542C40.5526 83.5618 41.1063 83.6065 41.7516 83.6923C41.8257 83.7022 41.8809 83.7654 41.8809 83.8399V85.2816C41.8809 86.5385 41.1312 87.1646 39.6315 87.1646C39.6234 87.1646 39.6152 87.1646 39.6071 87.1646C38.0342 87.1646 37.25 86.4996 37.25 85.1696C37.2583 84.0911 38.2036 83.5542 40.0862 83.5542Z" fill="#F9FAFC"/>
<path d="M55.3607 77.3398C55.2961 77.3573 55.2517 77.416 55.2517 77.4827V79.6079C55.2517 79.7062 55.3454 79.7777 55.4412 79.7542C56.2143 79.5652 57.0676 79.4671 58.0048 79.4671C59.7069 79.4671 60.5878 80.1897 60.6515 81.6394C60.6555 81.7304 60.5741 81.8006 60.4835 81.7883C59.0036 81.5873 57.4184 81.5209 55.9754 81.9631C54.3283 82.4681 53.0757 83.7747 53.0757 85.5492C53.0757 88.529 55.785 89.8065 58.4303 89.8065C61.0103 89.8065 63.6871 88.5282 63.6871 85.6221V82.2649C63.6871 80.5538 63.2143 79.2425 62.2689 78.3383C60.5208 76.6663 57.5612 76.7434 55.3607 77.3398ZM58.885 83.5542C59.3513 83.5618 59.9051 83.6065 60.5503 83.6923C60.6245 83.7022 60.6797 83.7654 60.6797 83.8399V85.2816C60.6797 86.5385 59.9298 87.1646 58.4303 87.1646C58.4221 87.1646 58.414 87.1646 58.4059 87.1646C56.8329 87.1646 56.0488 86.4996 56.0488 85.1696C56.0569 84.0911 57.0024 83.5542 58.885 83.5542Z" fill="#F9FAFC"/>
</svg>
