<svg width="65" height="95" viewBox="0 0 65 95" fill="none" xmlns="http://www.w3.org/2000/svg">
<path d="M32.3661 10.0019C20.9768 10.0019 11.5974 18.6002 10.3009 29.6734C10.2355 30.2327 10.1864 30.7956 10.16 31.3649C10.1362 31.878 10.5527 32.2946 11.0641 32.2946H14.4395C14.9509 32.2946 15.3631 31.8778 15.3957 31.3652C15.4321 30.7937 15.4993 30.2307 15.5853 29.6734C16.8456 21.507 23.8702 15.2442 32.3661 15.2442C41.753 15.2442 49.3587 22.8802 49.3587 32.2946C49.3587 41.7092 41.753 49.3368 32.3661 49.3368H6.86654C6.13929 49.3368 5.70059 50.1375 6.11678 50.7364C6.98959 51.9925 7.94822 53.1846 8.98724 54.2998C9.15954 54.4847 9.4013 54.5875 9.65347 54.5875H32.3661C44.6415 54.5875 54.5941 44.6061 54.5938 32.2946C54.5938 19.9833 44.6415 10.0019 32.3661 10.0019Z" fill="url(#paint0_radial_45_11053)"/>
<path d="M32.3661 0.251709C22.4148 0.251709 13.5221 4.79715 7.64676 11.9371C3.55169 16.913 1.0015 23.1939 0.473657 29.6245C0.472094 29.641 0.466623 29.6567 0.46532 29.6734C0.420081 30.2349 0.37878 30.7976 0.355302 31.3649C0.334065 31.878 0.749618 32.2946 1.26102 32.2946H4.63642C5.14782 32.2946 5.56076 31.8781 5.57928 31.3648C5.59977 30.7967 5.63844 30.2339 5.69266 29.6734C7.00894 16.06 18.4469 5.41253 32.3661 5.41253C47.1688 5.41253 59.1698 17.4486 59.1698 32.2946C59.1698 47.1408 47.1688 59.1768 32.3661 59.1766H17.8042C16.886 59.1766 16.5608 60.323 17.3727 60.7538C21.3926 62.8868 25.9226 64.1752 30.7296 64.4192H32.3661C48.9514 64.4192 62.5855 51.7771 64.2259 35.5774C64.3325 34.5243 64.3943 33.4571 64.3969 32.3763C64.3969 31.2674 64.3354 30.1654 64.2259 29.0854C62.5855 12.8857 48.9514 0.251709 32.3661 0.251709Z" fill="url(#paint1_radial_45_11053)"/>
<path d="M32.3661 19.8336C26.4053 19.8336 21.4375 24.0558 20.2343 29.6734C20.1159 30.2265 20.0272 30.7902 19.9798 31.3657C19.9377 31.8775 20.3557 32.2946 20.8671 32.2946H24.2506C24.762 32.2946 25.1704 31.8764 25.2391 31.3674C25.3188 30.7778 25.4717 30.2113 25.6815 29.6734C26.7286 26.9892 29.3185 25.084 32.3661 25.0843C36.3376 25.0843 39.5553 28.3114 39.5556 32.2946C39.5556 36.2777 36.3376 39.5048 32.3661 39.5051H6.53093C6.33324 38.7794 6.14955 38.0245 5.94191 37.3013C5.7961 36.7934 5.34152 36.4425 4.87902 36.4425H1.5325C1.0756 36.4425 0.667769 36.9766 0.755719 37.4826C1.17914 39.7469 1.68563 42.1143 2.5989 44.2376C2.7416 44.5694 3.09087 44.7477 3.41851 44.7477H32.3661C39.2257 44.7477 44.7827 39.1745 44.7827 32.2946C44.7827 25.4149 39.2257 19.8336 32.3661 19.8336Z" fill="url(#paint2_radial_45_11053)"/>
<path d="M2.1631 77.9878C4.02998 76.5754 6.824 76.7326 8.8052 77.8299C8.85213 77.8559 8.88062 77.9053 8.88062 77.9588V79.9116C8.88062 80.0211 8.76604 80.0937 8.66472 80.0511C7.87082 79.7176 6.98107 79.5509 5.9956 79.5509C4.56115 79.5509 3.844 79.8997 3.844 80.597C3.844 81.4985 5.28535 81.772 5.94663 81.9412C7.21183 82.2645 8.43539 82.7261 9.19233 83.8449C9.60403 84.4531 9.8098 85.2275 9.8098 86.1681C9.8098 88.6437 7.33331 89.8052 5.15202 89.8052C3.74774 89.8052 2.45294 89.4787 1.26746 88.8259C1.22021 88.7999 1.1912 88.7501 1.1912 88.6964V86.3985C1.1912 86.2792 1.32515 86.2075 1.42729 86.2698C2.45943 86.8994 3.55841 87.2142 4.7242 87.2142C5.6145 87.2142 6.80241 87.1658 6.80241 86.0222C6.80241 85.0907 5.38969 84.7551 4.69354 84.5565C3.49793 84.2153 2.25173 83.855 1.45393 82.8413C0.331871 81.4154 0.753363 79.0544 2.1631 77.9878Z" fill="#004BD0"/>
<path d="M46.9192 89.6106C46.8363 89.6106 46.7692 89.5437 46.7692 89.4613V78.3922C46.7692 78.3347 46.8022 78.2822 46.8546 78.2583C47.0491 78.1697 47.3018 78.0674 47.6127 77.9514C49.2459 77.3421 51.1155 77.0316 52.8517 76.9875C52.9354 76.9853 53.0039 77.0526 53.0039 77.136V79.4279C53.0039 79.5096 52.9379 79.5761 52.8558 79.5778C51.7135 79.6016 50.7232 79.7284 49.8848 79.9584C49.8205 79.976 49.7765 80.0346 49.7765 80.101V89.4613C49.7765 89.5437 49.7094 89.6106 49.6266 89.6106H46.9192Z" fill="#004BD0"/>
<path d="M28.0138 76.9858C24.3668 76.9858 22.5858 80.4113 22.5858 83.6583C22.5858 87.1545 24.567 89.7404 28.224 89.7404C28.7657 89.7329 29.3355 89.6731 29.9375 89.5646C30.0303 89.5479 30.1164 89.6184 30.1164 89.7124C30.1164 90.0908 30.1532 90.4949 30.0577 90.8642C29.7988 91.871 28.7084 92.0175 27.8289 92.0683C27.749 92.073 27.6861 92.1385 27.6861 92.2182V94.5999C27.6861 94.6834 27.7549 94.7508 27.8387 94.7483C30.0896 94.6819 32.5216 93.7561 33.0161 91.3459C33.0895 90.9891 33.1238 90.6096 33.1238 90.2123V81.0729C33.1238 78.2175 30.5587 76.9858 28.0138 76.9858ZM28.0138 79.6471C28.0219 79.6471 28.0367 79.6471 28.0529 79.6471C29.4303 79.6471 30.1164 80.1094 30.1164 81.0339V86.9995C30.1164 87.071 30.0655 87.1326 29.9949 87.1453C29.4473 87.2437 28.891 87.2929 28.3218 87.2929C26.1273 87.2929 25.5932 85.6305 25.5932 83.707C25.5932 82.0541 25.9447 79.6471 28.0138 79.6471Z" fill="#004BD0"/>
<path d="M13.1252 77.3398C13.0606 77.3573 13.0162 77.4161 13.0162 77.4828V79.6079C13.0162 79.7062 13.1098 79.7777 13.2057 79.7542C13.9781 79.5652 14.8271 79.4671 15.7642 79.4671C17.4665 79.4671 18.3517 80.1897 18.4158 81.6394C18.4198 81.7304 18.3384 81.8006 18.2478 81.7883C16.7668 81.5871 15.1791 81.5204 13.735 81.9631C12.091 82.4671 10.8401 83.8013 10.8401 85.5492C10.8401 88.5325 13.5446 89.8065 16.1946 89.8065C18.77 89.8065 21.4514 88.5247 21.4514 85.6221V82.2649C21.4514 80.5538 20.9786 79.2425 20.0333 78.3383C18.2849 76.6663 15.3259 76.7445 13.1252 77.3398ZM16.6444 83.5542C17.1109 83.5618 17.6689 83.6065 18.3146 83.6924C18.3888 83.7022 18.444 83.7654 18.444 83.8399V85.2816C18.444 86.5385 17.6943 87.1646 16.1946 87.1646C16.1864 87.1646 16.1783 87.1646 16.1702 87.1646C14.5972 87.1646 13.8083 86.4996 13.8083 85.1696C13.8165 84.0911 14.7618 83.5542 16.6444 83.5542Z" fill="#004BD0"/>
<path d="M36.7292 77.3398C36.6646 77.3573 36.6202 77.416 36.6202 77.4827V79.6079C36.6202 79.7062 36.7139 79.7777 36.8098 79.7542C37.5827 79.5652 38.436 79.4671 39.3731 79.4671C41.0754 79.4671 41.9561 80.1897 42.0199 81.6394C42.0239 81.7304 41.9424 81.8006 41.8518 81.7883C40.3721 81.5873 38.7868 81.5208 37.3439 81.9631C35.6833 82.4722 34.444 83.7816 34.444 85.5492C34.444 88.529 37.1534 89.8065 39.7986 89.8065C42.3786 89.8065 45.0554 88.5282 45.0554 85.6221V82.2649C45.0554 80.5538 44.5827 79.2425 43.6372 78.3383C41.8892 76.6664 38.9297 76.7434 36.7292 77.3398ZM40.2533 83.5542C40.7198 83.5618 41.2735 83.6065 41.9187 83.6923C41.9929 83.7022 42.048 83.7654 42.048 83.8399V85.2816C42.048 86.5385 41.2983 87.1646 39.7986 87.1646C39.7905 87.1646 39.7823 87.1646 39.7742 87.1646C38.2013 87.1646 37.4171 86.4996 37.4171 85.1696C37.4254 84.0911 38.3707 83.5542 40.2533 83.5542Z" fill="#004BD0"/>
<path d="M55.5278 77.3398C55.4632 77.3573 55.4188 77.416 55.4188 77.4827V79.6079C55.4188 79.7062 55.5125 79.7777 55.6084 79.7542C56.3814 79.5652 57.2347 79.4671 58.1719 79.4671C59.874 79.4671 60.7549 80.1897 60.8186 81.6394C60.8226 81.7304 60.7412 81.8006 60.6506 81.7883C59.1707 81.5873 57.5855 81.5209 56.1425 81.9631C54.4955 82.4681 53.2428 83.7747 53.2428 85.5492C53.2428 88.529 55.9521 89.8065 58.5974 89.8065C61.1774 89.8065 63.8542 88.5282 63.8542 85.6221V82.2649C63.8542 80.5538 63.3814 79.2425 62.436 78.3383C60.6879 76.6663 57.7284 76.7434 55.5278 77.3398ZM59.0521 83.5542C59.5184 83.5618 60.0722 83.6065 60.7175 83.6923C60.7916 83.7022 60.8468 83.7654 60.8468 83.8399V85.2816C60.8468 86.5385 60.0969 87.1646 58.5974 87.1646C58.5893 87.1646 58.5811 87.1646 58.573 87.1646C57 87.1646 56.2159 86.4996 56.2159 85.1696C56.2241 84.0911 57.1695 83.5542 59.0521 83.5542Z" fill="#004BD0"/>
<defs>
<radialGradient id="paint0_radial_45_11053" cx="0" cy="0" r="1" gradientUnits="userSpaceOnUse" gradientTransform="translate(55.2949 9.65124) rotate(134.963) scale(64.1226 65.7084)">
<stop offset="0.0665658" stop-color="#FCE300"/>
<stop offset="0.290127" stop-color="#2FFF86"/>
<stop offset="0.640574" stop-color="#0096E1"/>
<stop offset="0.83191" stop-color="#0057F2"/>
<stop offset="1" stop-color="#004BD0"/>
</radialGradient>
<radialGradient id="paint1_radial_45_11053" cx="0" cy="0" r="1" gradientUnits="userSpaceOnUse" gradientTransform="translate(55.2949 9.65124) rotate(134.963) scale(64.1226 65.7084)">
<stop offset="0.0665658" stop-color="#FCE300"/>
<stop offset="0.290127" stop-color="#2FFF86"/>
<stop offset="0.640574" stop-color="#0096E1"/>
<stop offset="0.83191" stop-color="#0057F2"/>
<stop offset="1" stop-color="#004BD0"/>
</radialGradient>
<radialGradient id="paint2_radial_45_11053" cx="0" cy="0" r="1" gradientUnits="userSpaceOnUse" gradientTransform="translate(55.2949 9.65124) rotate(134.963) scale(64.1226 65.7084)">
<stop offset="0.0665658" stop-color="#FCE300"/>
<stop offset="0.290127" stop-color="#2FFF86"/>
<stop offset="0.640574" stop-color="#0096E1"/>
<stop offset="0.83191" stop-color="#0057F2"/>
<stop offset="1" stop-color="#004BD0"/>
</radialGradient>
</defs>
</svg>
