<svg width="181" height="65" viewBox="0 0 181 65" fill="none" xmlns="http://www.w3.org/2000/svg">
<path d="M77.9811 24.2358C81.0873 21.8714 85.7361 22.1346 89.0325 23.9713C89.1106 24.0148 89.158 24.0976 89.158 24.1871V27.456C89.158 27.6393 88.9674 27.7608 88.7988 27.6896C87.4779 27.1312 85.9975 26.8522 84.3578 26.8522C81.9711 26.8522 80.7779 27.436 80.7779 28.6033C80.7779 30.1123 83.1761 30.5702 84.2763 30.8533C86.3814 31.3945 88.4172 32.1671 89.6767 34.04C90.3617 35.058 90.704 36.3543 90.704 37.9288C90.704 42.0728 86.5835 44.017 82.9542 44.017C80.6177 44.017 78.4634 43.4705 76.4909 42.3777C76.4123 42.3341 76.364 42.2509 76.364 42.1609V38.3144C76.364 38.1148 76.5869 37.9947 76.7569 38.099C78.4742 39.1529 80.3027 39.6799 82.2424 39.6799C83.7237 39.6799 85.7002 39.5989 85.7002 37.6846C85.7002 36.1254 83.3497 35.5636 82.1914 35.231C80.2021 34.66 78.1286 34.0569 76.8012 32.36C74.9343 29.9731 75.6356 26.0212 77.9811 24.2358Z" fill="#004BD0"/>
<path d="M152.448 43.6912C152.31 43.6912 152.199 43.5793 152.199 43.4412V24.9126C152.199 24.8164 152.254 24.7285 152.341 24.6885C152.664 24.5402 153.085 24.3689 153.602 24.1748C156.32 23.1549 159.43 22.6352 162.319 22.5612C162.458 22.5577 162.572 22.6703 162.572 22.8099V26.6463C162.572 26.7831 162.462 26.8944 162.326 26.8973C160.425 26.9371 158.777 27.1493 157.383 27.5343C157.276 27.5638 157.202 27.6618 157.202 27.773V43.4412C157.202 43.5793 157.091 43.6912 156.953 43.6912H152.448Z" fill="#004BD0"/>
<path d="M120.993 22.5584C114.925 22.5584 111.961 28.2925 111.961 33.7276C111.961 39.58 115.258 43.9084 121.342 43.9084C122.244 43.8959 123.192 43.7958 124.193 43.6142C124.348 43.5862 124.491 43.7043 124.491 43.8616C124.491 44.4949 124.552 45.1714 124.393 45.7896C123.963 47.4749 122.148 47.7202 120.685 47.8052C120.552 47.813 120.447 47.9227 120.447 48.0561V52.0428C120.447 52.1826 120.562 52.2954 120.701 52.2912C124.446 52.1802 128.493 50.6304 129.316 46.596C129.438 45.9987 129.495 45.3635 129.495 44.6984V29.3998C129.495 24.6203 125.227 22.5584 120.993 22.5584ZM120.993 27.0133C121.006 27.0133 121.031 27.0133 121.058 27.0133C123.349 27.0133 124.491 27.7871 124.491 29.3347V39.3204C124.491 39.4401 124.406 39.5432 124.289 39.5645C123.378 39.7292 122.452 39.8117 121.505 39.8117C117.854 39.8117 116.965 37.0289 116.965 33.8092C116.965 31.0422 117.55 27.0133 120.993 27.0133Z" fill="#004BD0"/>
<path d="M96.2204 23.151C96.1128 23.1803 96.0389 23.2787 96.0389 23.3904V26.9476C96.0389 27.1121 96.1948 27.2318 96.3543 27.1925C97.6394 26.8761 99.052 26.712 100.611 26.712C103.444 26.712 104.916 27.9215 105.023 30.3481C105.03 30.5004 104.894 30.618 104.743 30.5974C102.279 30.2607 99.6377 30.149 97.235 30.8901C94.4996 31.7337 92.4184 33.967 92.4184 36.8928C92.4184 41.8865 96.9182 44.0191 101.327 44.0191C105.612 44.0191 110.074 41.8734 110.074 37.0148V31.3952C110.074 28.5309 109.287 26.3359 107.714 24.8224C104.805 22.0236 99.8819 22.1545 96.2204 23.151ZM102.076 33.5534C102.852 33.5661 103.78 33.641 104.855 33.7846C104.978 33.8011 105.07 33.9069 105.07 34.0316V36.4448C105.07 38.5488 103.823 39.5968 101.327 39.5968C101.314 39.5968 101.3 39.5968 101.287 39.5968C98.6696 39.5968 97.3568 38.4837 97.3568 36.2574C97.3706 34.452 98.9435 33.5534 102.076 33.5534Z" fill="#004BD0"/>
<path d="M135.494 23.151C135.386 23.1803 135.312 23.2786 135.312 23.3902V26.9475C135.312 27.1121 135.468 27.2318 135.628 27.1925C136.914 26.8761 138.333 26.712 139.893 26.712C142.725 26.712 144.19 27.9215 144.297 30.3481C144.303 30.5004 144.168 30.618 144.017 30.5974C141.555 30.261 138.917 30.1496 136.516 30.8901C133.753 31.7423 131.692 33.934 131.692 36.8928C131.692 41.8806 136.199 44.0191 140.601 44.0191C144.893 44.0191 149.347 41.8793 149.347 37.0148V31.3952C149.347 28.5309 148.561 26.3359 146.988 24.8224C144.079 22.0238 139.155 22.1526 135.494 23.151ZM141.357 33.5534C142.133 33.5661 143.055 33.641 144.128 33.7846C144.252 33.8011 144.343 33.9069 144.343 34.0316V36.4448C144.343 38.5488 143.096 39.5968 140.601 39.5968C140.587 39.5968 140.574 39.5968 140.56 39.5968C137.943 39.5968 136.638 38.4837 136.638 36.2574C136.652 34.452 138.225 33.5534 141.357 33.5534Z" fill="#004BD0"/>
<path d="M166.772 23.151C166.664 23.1803 166.59 23.2786 166.59 23.3903V26.9476C166.59 27.1121 166.746 27.2318 166.906 27.1925C168.192 26.8761 169.612 26.712 171.171 26.712C174.003 26.712 175.469 27.9215 175.575 30.3481C175.581 30.5004 175.446 30.618 175.295 30.5974C172.833 30.2609 170.195 30.1497 167.794 30.8901C165.054 31.7353 162.97 33.9225 162.97 36.8928C162.97 41.8806 167.478 44.0191 171.879 44.0191C176.172 44.0191 180.625 41.8793 180.625 37.0148V31.3952C180.625 28.5309 179.839 26.3359 178.266 24.8224C175.357 22.0237 170.433 22.1527 166.772 23.151ZM172.636 33.5534C173.411 33.5661 174.333 33.641 175.406 33.7846C175.53 33.8011 175.622 33.9069 175.622 34.0316V36.4448C175.622 38.5488 174.374 39.5968 171.879 39.5968C171.865 39.5968 171.852 39.5968 171.838 39.5968C169.221 39.5968 167.917 38.4837 167.917 36.2574C167.93 34.452 169.503 33.5534 172.636 33.5534Z" fill="#004BD0"/>
<path d="M32.072 9.97643C20.7102 9.97643 11.3534 18.5523 10.0601 29.5966C9.99477 30.1544 9.9458 30.7159 9.91947 31.2837C9.89573 31.7954 10.3112 32.2109 10.8213 32.2109H14.1886C14.6988 32.2109 15.11 31.7952 15.1425 31.284C15.1789 30.714 15.2458 30.1524 15.3317 29.5966C16.5889 21.4515 23.5966 15.2051 32.072 15.2051C41.4364 15.2051 49.0237 22.8211 49.0237 32.2109C49.0237 41.601 41.4364 49.2087 32.072 49.2087H6.63393C5.90843 49.2087 5.47079 50.0073 5.88598 50.6046C6.75668 51.8575 7.71301 53.0465 8.74952 54.1587C8.9214 54.3431 9.16258 54.4457 9.41414 54.4457H32.072C44.3178 54.4457 54.2465 44.4903 54.2462 32.2109C54.2462 19.9318 44.3178 9.97643 32.072 9.97643Z" fill="url(#paint0_radial_45_11050)"/>
<path d="M32.072 0.251709C22.1447 0.251709 13.2734 4.78529 7.41227 11.9066C3.32706 16.8695 0.783021 23.134 0.256451 29.5478C0.254892 29.5643 0.249434 29.5799 0.248134 29.5966C0.203004 30.1567 0.161802 30.7179 0.138381 31.2837C0.117195 31.7955 0.531747 32.2109 1.04191 32.2109H4.40918C4.91935 32.2109 5.3313 31.7955 5.34977 31.2836C5.37022 30.717 5.40879 30.1556 5.46288 29.5966C6.77599 16.0188 18.1864 5.39906 32.072 5.39906C46.839 5.39906 58.8111 17.4037 58.8111 32.2109C58.8111 47.0184 46.839 59.023 32.072 59.0228H17.5452C16.6292 59.0228 16.3048 60.1662 17.1148 60.5959C21.125 62.7234 25.644 64.0084 30.4395 64.2517H32.072C48.6174 64.2517 62.2187 51.6426 63.8551 35.4852C63.9614 34.4348 64.023 33.3704 64.0256 32.2925C64.0256 31.1864 63.9643 30.0873 63.8551 29.0102C62.2187 12.8527 48.6174 0.251709 32.072 0.251709Z" fill="url(#paint1_radial_45_11050)"/>
<path d="M32.072 19.7825C26.1256 19.7825 21.1697 23.9937 19.9694 29.5966C19.8514 30.1483 19.7629 30.7105 19.7156 31.2845C19.6736 31.795 20.0906 32.2109 20.6008 32.2109H23.9761C24.4863 32.2109 24.8936 31.7938 24.9623 31.2862C25.0417 30.6981 25.1943 30.1331 25.4036 29.5966C26.4482 26.9194 29.0318 25.0192 32.072 25.0195C36.034 25.0195 39.244 28.2382 39.2442 32.2109C39.2442 36.1836 36.034 39.4024 32.072 39.4026H6.29913C6.10192 38.6788 5.91867 37.9259 5.71152 37.2046C5.56607 36.6981 5.11259 36.3481 4.6512 36.3481H1.31274C0.85694 36.3481 0.450096 36.8808 0.537834 37.3855C0.960238 39.6438 1.4655 42.0051 2.37657 44.1228C2.51892 44.4537 2.86736 44.6316 3.19421 44.6316H32.072C38.9152 44.6316 44.4587 39.0729 44.4587 32.2109C44.4587 25.3492 38.9152 19.7825 32.072 19.7825Z" fill="url(#paint2_radial_45_11050)"/>
<defs>
<radialGradient id="paint0_radial_45_11050" cx="0" cy="0" r="1" gradientUnits="userSpaceOnUse" gradientTransform="translate(54.9456 9.62671) rotate(134.969) scale(63.9617 65.5435)">
<stop offset="0.0665658" stop-color="#FCE300"/>
<stop offset="0.290127" stop-color="#2FFF86"/>
<stop offset="0.640574" stop-color="#0096E1"/>
<stop offset="0.83191" stop-color="#0057F2"/>
<stop offset="1" stop-color="#004BD0"/>
</radialGradient>
<radialGradient id="paint1_radial_45_11050" cx="0" cy="0" r="1" gradientUnits="userSpaceOnUse" gradientTransform="translate(54.9456 9.62671) rotate(134.969) scale(63.9617 65.5435)">
<stop offset="0.0665658" stop-color="#FCE300"/>
<stop offset="0.290127" stop-color="#2FFF86"/>
<stop offset="0.640574" stop-color="#0096E1"/>
<stop offset="0.83191" stop-color="#0057F2"/>
<stop offset="1" stop-color="#004BD0"/>
</radialGradient>
<radialGradient id="paint2_radial_45_11050" cx="0" cy="0" r="1" gradientUnits="userSpaceOnUse" gradientTransform="translate(54.9456 9.62671) rotate(134.969) scale(63.9617 65.5435)">
<stop offset="0.0665658" stop-color="#FCE300"/>
<stop offset="0.290127" stop-color="#2FFF86"/>
<stop offset="0.640574" stop-color="#0096E1"/>
<stop offset="0.83191" stop-color="#0057F2"/>
<stop offset="1" stop-color="#004BD0"/>
</radialGradient>
</defs>
</svg>
