<svg width="182" height="65" viewBox="0 0 182 65" fill="none" xmlns="http://www.w3.org/2000/svg">
<path fill-rule="evenodd" clip-rule="evenodd" d="M136.068 23.3966C137.888 22.9004 140.019 22.6211 142.053 22.8123C144.088 23.0034 146.015 23.664 147.443 25.0376C148.985 26.5207 149.764 28.6788 149.764 31.5202V37.1398C149.764 39.5275 148.674 41.2416 147.055 42.3633C145.431 43.4883 143.271 44.0191 141.143 44.0191C138.96 44.0191 136.759 43.4884 135.108 42.3485C133.462 41.212 132.358 39.4676 132.358 37.0178C132.358 34.1265 134.371 31.9746 137.095 31.1345C139.47 30.4022 142.086 30.5106 144.542 30.8462C144.765 30.8768 144.973 30.7022 144.963 30.4677C144.909 29.2294 144.506 28.2827 143.738 27.6486C142.974 27.0173 141.866 26.712 140.435 26.712C138.867 26.712 137.437 26.877 136.14 27.1961C136.057 27.2165 135.979 27.154 135.979 27.0725V23.5152C135.979 23.4591 136.016 23.4108 136.068 23.3966ZM141.899 33.5534C140.325 33.5534 139.123 33.7785 138.308 34.2449C137.484 34.7171 137.063 35.4339 137.055 36.3814L137.055 36.3824C137.055 37.5205 137.39 38.3952 138.079 38.9822C138.764 39.5658 139.779 39.8468 141.102 39.8468H141.143C142.405 39.8468 143.374 39.5822 144.03 39.0305C144.69 38.4752 145.01 37.6473 145.01 36.5698V34.1566C145.01 33.9697 144.872 33.8106 144.687 33.7857C143.61 33.6416 142.683 33.5662 141.901 33.5534H141.899Z" fill="#003DAE"/>
<path fill-rule="evenodd" clip-rule="evenodd" d="M167.346 23.3966C169.166 22.9005 171.297 22.6212 173.331 22.8123C175.366 23.0034 177.294 23.6639 178.721 25.0376C180.263 26.5207 181.042 28.6788 181.042 31.5202V37.1398C181.042 39.5275 179.952 41.2416 178.333 42.3633C176.709 43.4883 174.549 44.0191 172.421 44.0191C170.238 44.0191 168.037 43.4884 166.387 42.3485C164.741 41.212 163.636 39.4676 163.636 37.0178C163.636 34.1153 165.671 31.9678 168.373 31.1345C170.748 30.4023 173.364 30.5106 175.82 30.8462C176.044 30.8768 176.252 30.7022 176.241 30.4677C176.187 29.2294 175.784 28.2827 175.016 27.6486C174.252 27.0173 173.144 26.712 171.713 26.712C170.145 26.712 168.715 26.8771 167.418 27.1961C167.335 27.2165 167.257 27.154 167.257 27.0726V23.5153C167.257 23.4591 167.294 23.4109 167.346 23.3966ZM173.177 33.5534C171.603 33.5534 170.401 33.7785 169.586 34.2449C168.762 34.7171 168.341 35.4339 168.334 36.3815V36.3824C168.334 37.5205 168.668 38.3952 169.357 38.9822C170.042 39.5658 171.057 39.8468 172.38 39.8468H172.421C173.683 39.8468 174.652 39.5822 175.308 39.0305C175.968 38.4753 176.288 37.6473 176.288 36.5698V34.1566C176.288 33.9697 176.151 33.8106 175.965 33.7857C174.888 33.6416 173.961 33.5662 173.179 33.5534H173.177Z" fill="#003DAE"/>
<path fill-rule="evenodd" clip-rule="evenodd" d="M96.795 23.3967C98.6147 22.9014 100.746 22.622 102.78 22.8129C104.814 23.0038 106.742 23.6639 108.17 25.0376C109.711 26.5207 110.491 28.6788 110.491 31.5202V37.1398C110.491 39.5244 109.399 41.2386 107.778 42.3611C106.153 43.4869 103.993 44.0191 101.869 44.0191C99.6822 44.0191 97.4818 43.4898 95.8321 42.3507C94.1874 41.215 93.085 39.4707 93.085 37.0178C93.085 34.1592 95.1178 31.966 97.8136 31.1345C100.19 30.4016 102.81 30.5103 105.268 30.8462C105.492 30.8767 105.7 30.7022 105.69 30.4677C105.635 29.2292 105.23 28.2825 104.46 27.6485C103.694 27.0173 102.585 26.712 101.153 26.712C99.5851 26.712 98.1624 26.877 96.8664 27.1961C96.7836 27.2165 96.7056 27.154 96.7056 27.0726V23.5154C96.7056 23.4591 96.7426 23.4109 96.795 23.3967ZM102.618 33.5534C101.044 33.5534 99.8413 33.7785 99.0268 34.2449C98.202 34.7171 97.7812 35.4339 97.7739 36.3814L97.7739 36.3824C97.7739 37.5207 98.1105 38.3954 98.8015 38.9823C99.4886 39.5658 100.505 39.8468 101.829 39.8468H101.869C103.131 39.8468 104.101 39.5822 104.756 39.0305C105.416 38.4752 105.737 37.6473 105.737 36.5698V34.1566C105.737 33.9697 105.599 33.8106 105.413 33.7857C104.335 33.6416 103.402 33.5662 102.62 33.5534H102.618Z" fill="#003DAE"/>
<path d="M78.5985 24.4603C81.6546 22.134 86.2477 22.3857 89.5138 24.2056C89.5513 24.2265 89.5751 24.2668 89.5751 24.3121V27.581C89.5751 27.6709 89.4792 27.7374 89.3892 27.6994C88.0509 27.1337 86.5536 26.8522 84.8997 26.8522C83.7002 26.8522 82.7823 26.9982 82.16 27.3027C81.8471 27.4557 81.6045 27.651 81.4404 27.8918C81.2757 28.1335 81.195 28.414 81.195 28.7283C81.195 29.5623 81.8599 30.0847 82.6044 30.4266C83.2336 30.7156 83.9614 30.8949 84.4997 31.0276L84.4999 31.0277C84.6033 31.0531 84.6998 31.0769 84.7872 31.0994C86.888 31.6394 88.8832 32.4029 90.1151 34.2349C90.7827 35.2271 91.1211 36.4972 91.1211 38.0538C91.1211 40.0775 90.1176 41.5634 88.6622 42.5483C87.2029 43.5357 85.2911 44.017 83.4961 44.017C81.1799 44.017 79.0465 43.4755 77.0932 42.3933C77.0549 42.3721 77.0307 42.3311 77.0307 42.2859V38.4394C77.0307 38.3417 77.1431 38.2751 77.2335 38.3306C78.9697 39.396 80.8207 39.9299 82.7843 39.9299C83.5219 39.9299 84.4091 39.9109 85.1132 39.6419C85.4679 39.5064 85.7833 39.3049 86.0097 39.0042C86.237 38.7024 86.3669 38.3108 86.3669 37.8096C86.3669 36.9556 85.7211 36.3935 84.9791 36.0116C84.3228 35.6739 83.5534 35.4574 82.9877 35.2982C82.9103 35.2764 82.8366 35.2557 82.7676 35.2359C80.7708 34.6626 78.7397 34.0677 77.4413 32.4079C76.5334 31.2471 76.2456 29.6994 76.4766 28.2166C76.7077 26.7336 77.4555 25.3303 78.5985 24.4603Z" fill="#003DAE"/>
<path d="M162.864 22.8112C162.932 22.8094 162.989 22.8647 162.989 22.9349V26.7713C162.989 26.8394 162.935 26.8959 162.865 26.8973C160.957 26.9372 159.299 27.1504 157.891 27.5388C157.729 27.5835 157.62 27.7317 157.62 27.898V43.5662C157.62 43.6353 157.564 43.6912 157.495 43.6912H152.99C152.921 43.6912 152.865 43.6353 152.865 43.5662V25.0376C152.865 24.989 152.893 24.9463 152.935 24.9272C153.255 24.7806 153.672 24.6104 154.188 24.4168C156.89 23.4026 159.987 22.8848 162.864 22.8112Z" fill="#003DAE"/>
<path fill-rule="evenodd" clip-rule="evenodd" d="M114.985 25.8717C116.46 24.0175 118.635 22.8084 121.535 22.8084C123.64 22.8084 125.744 23.3227 127.315 24.4233C128.873 25.5145 129.912 27.1848 129.912 29.5248V44.8234C129.912 45.4815 129.856 46.1081 129.735 46.696C129.398 48.3522 128.507 49.5801 127.313 50.4585C125.652 51.6803 123.401 52.2272 121.24 52.2913C121.171 52.2933 121.114 52.2381 121.114 52.1678V48.1811C121.114 48.1148 121.166 48.059 121.234 48.055C121.967 48.0125 122.804 47.9294 123.515 47.6382C124.232 47.3447 124.829 46.8359 125.056 45.9458C125.185 45.4427 125.174 44.8992 125.163 44.3896L125.163 44.3893C125.161 44.2521 125.158 44.1174 125.158 43.9866C125.158 43.7502 124.943 43.5745 124.713 43.6162C123.717 43.7968 122.776 43.8959 121.883 43.9084C119.179 43.9082 117.042 43.0451 115.506 41.5784C113.621 39.7776 112.628 36.8022 112.628 33.6026C112.628 30.8207 113.411 27.8505 114.985 25.8717ZM121.535 27.0133C120.702 27.0133 120.025 27.215 119.478 27.5657C118.933 27.9161 118.525 28.4105 118.221 28.9854C117.545 30.2681 117.382 32.2184 117.382 33.6842C117.382 35.6463 117.709 37.7362 118.823 38.8811C119.546 39.6245 120.588 40.0617 122.047 40.0617C123.001 40.0617 123.934 39.9786 124.853 39.8125C125.031 39.7803 125.158 39.6246 125.158 39.4454V29.4597C125.158 28.9471 125.037 28.5068 124.788 28.1461C124.54 27.7855 124.17 27.5144 123.688 27.3283C123.139 27.1164 122.441 27.0133 121.599 27.0133H121.535Z" fill="#003DAE"/>
<path d="M32.7809 9.97643C21.4191 9.97643 12.0623 18.5523 10.7689 29.5966C10.7037 30.1544 10.6547 30.7159 10.6284 31.2837C10.6046 31.7954 11.0201 32.2109 11.5302 32.2109H14.8975C15.4077 32.2109 15.8189 31.7952 15.8514 31.284C15.8878 30.714 15.9547 30.1524 16.0406 29.5966C17.2978 21.4515 24.3055 15.2051 32.7809 15.2051C42.1453 15.2051 49.7325 22.8211 49.7325 32.2109C49.7325 41.601 42.1453 49.2087 32.7809 49.2087H7.34282C6.61733 49.2087 6.17968 50.0073 6.59487 50.6046C7.46557 51.8575 8.4219 53.0465 9.45841 54.1587C9.63029 54.3431 9.87148 54.4457 10.123 54.4457H32.7809C45.0267 54.4457 54.9553 44.4903 54.9551 32.2109C54.9551 19.9318 45.0267 9.97643 32.7809 9.97643Z" fill="#003DAE"/>
<path d="M32.7809 0.251709C22.8536 0.251709 13.9823 4.78529 8.12116 11.9066C4.03596 16.8695 1.49191 23.134 0.965344 29.5478C0.963784 29.5643 0.958327 29.5799 0.957027 29.5966C0.911897 30.1567 0.870695 30.7179 0.847274 31.2837C0.826088 31.7955 1.24064 32.2109 1.75081 32.2109H5.11807C5.62824 32.2109 6.04019 31.7955 6.05866 31.2836C6.07911 30.717 6.11768 30.1556 6.17177 29.5966C7.48488 16.0188 18.8953 5.39906 32.7809 5.39906C47.5479 5.39906 59.52 17.4037 59.52 32.2109C59.52 47.0184 47.5479 59.023 32.7809 59.0228H18.2541C17.3381 59.0228 17.0137 60.1662 17.8236 60.5959C21.8339 62.7234 26.3529 64.0084 31.1484 64.2517H32.7809C49.3263 64.2517 62.9276 51.6426 64.564 35.4852C64.6703 34.4348 64.7319 33.3704 64.7345 32.2925C64.7345 31.1864 64.6732 30.0873 64.564 29.0102C62.9276 12.8527 49.3263 0.251709 32.7809 0.251709Z" fill="#003DAE"/>
<path d="M32.7809 19.7825C26.8345 19.7825 21.8786 23.9937 20.6783 29.5966C20.5603 30.1483 20.4718 30.7105 20.4245 31.2845C20.3825 31.795 20.7995 32.2109 21.3097 32.2109H24.685C25.1952 32.2109 25.6025 31.7938 25.6711 31.2862C25.7506 30.6981 25.9032 30.1331 26.1125 29.5966C27.1571 26.9194 29.7407 25.0192 32.7809 25.0195C36.7429 25.0195 39.9529 28.2382 39.9531 32.2109C39.9531 36.1836 36.7429 39.4024 32.7809 39.4026H7.00802C6.81081 38.6788 6.62756 37.9259 6.42042 37.2046C6.27496 36.6981 5.82148 36.3481 5.36009 36.3481H2.02163C1.56583 36.3481 1.15899 36.8808 1.24673 37.3855C1.66913 39.6438 2.1744 42.0051 3.08546 44.1228C3.22782 44.4537 3.57625 44.6316 3.9031 44.6316H32.7809C39.6241 44.6316 45.1676 39.0729 45.1676 32.2109C45.1676 25.3492 39.6241 19.7825 32.7809 19.7825Z" fill="#003DAE"/>
</svg>
