<svg width="181" height="65" viewBox="0 0 181 65" fill="none" xmlns="http://www.w3.org/2000/svg">
<path fill-rule="evenodd" clip-rule="evenodd" d="M135.735 23.3966C137.554 22.9004 139.686 22.6211 141.72 22.8123C143.754 23.0034 145.682 23.664 147.11 25.0376C148.651 26.5207 149.431 28.6788 149.431 31.5202V37.1398C149.431 39.5275 148.341 41.2416 146.721 42.3633C145.097 43.4883 142.937 44.0191 140.809 44.0191C138.626 44.0191 136.426 43.4884 134.775 42.3485C133.129 41.212 132.025 39.4676 132.025 37.0178C132.025 34.1265 134.038 31.9746 136.762 31.1345C139.136 30.4022 141.752 30.5106 144.208 30.8462C144.432 30.8768 144.64 30.7022 144.63 30.4677C144.576 29.2294 144.173 28.2827 143.405 27.6486C142.64 27.0173 141.533 26.712 140.101 26.712C138.533 26.712 137.103 26.877 135.806 27.1961C135.724 27.2165 135.646 27.154 135.646 27.0725V23.5152C135.646 23.4591 135.683 23.4108 135.735 23.3966ZM141.566 33.5534C139.992 33.5534 138.789 33.7785 137.975 34.2449C137.15 34.7171 136.729 35.4339 136.722 36.3814L136.722 36.3824C136.722 37.5205 137.056 38.3952 137.745 38.9822C138.431 39.5658 139.445 39.8468 140.769 39.8468H140.809C142.071 39.8468 143.041 39.5822 143.696 39.0305C144.356 38.4752 144.677 37.6473 144.677 36.5698V34.1566C144.677 33.9697 144.539 33.8106 144.353 33.7857C143.276 33.6416 142.35 33.5662 141.568 33.5534H141.566Z" fill="#F9FAFC"/>
<path fill-rule="evenodd" clip-rule="evenodd" d="M167.013 23.3966C168.832 22.9005 170.964 22.6212 172.998 22.8123C175.032 23.0034 176.96 23.6639 178.388 25.0376C179.929 26.5207 180.709 28.6788 180.709 31.5202V37.1398C180.709 39.5275 179.619 41.2416 177.999 42.3633C176.375 43.4883 174.215 44.0191 172.087 44.0191C169.904 44.0191 167.704 43.4884 166.053 42.3485C164.407 41.212 163.303 39.4676 163.303 37.0178C163.303 34.1153 165.338 31.9678 168.04 31.1345C170.414 30.4023 173.03 30.5106 175.487 30.8462C175.71 30.8768 175.918 30.7022 175.908 30.4677C175.854 29.2294 175.451 28.2827 174.683 27.6486C173.918 27.0173 172.811 26.712 171.379 26.712C169.811 26.712 168.382 26.8771 167.084 27.1961C167.002 27.2165 166.924 27.154 166.924 27.0726V23.5153C166.924 23.4591 166.961 23.4109 167.013 23.3966ZM172.844 33.5534C171.27 33.5534 170.068 33.7785 169.253 34.2449C168.428 34.7171 168.007 35.4339 168 36.3815V36.3824C168 37.5205 168.335 38.3952 169.024 38.9822C169.709 39.5658 170.724 39.8468 172.047 39.8468H172.087C173.349 39.8468 174.319 39.5822 174.975 39.0305C175.634 38.4753 175.955 37.6473 175.955 36.5698V34.1566C175.955 33.9697 175.817 33.8106 175.631 33.7857C174.554 33.6416 173.628 33.5662 172.846 33.5534H172.844Z" fill="#F9FAFC"/>
<path fill-rule="evenodd" clip-rule="evenodd" d="M96.4616 23.3967C98.2813 22.9014 100.412 22.622 102.446 22.8129C104.481 23.0038 106.409 23.6639 107.836 25.0376C109.378 26.5207 110.157 28.6788 110.157 31.5202V37.1398C110.157 39.5244 109.065 41.2386 107.445 42.3611C105.82 43.4869 103.66 44.0191 101.536 44.0191C99.3488 44.0191 97.1484 43.4898 95.4987 42.3507C93.854 41.215 92.7516 39.4707 92.7516 37.0178C92.7516 34.1592 94.7843 31.966 97.4802 31.1345C99.8566 30.4016 102.477 30.5103 104.935 30.8462C105.159 30.8767 105.366 30.7022 105.356 30.4677C105.302 29.2292 104.897 28.2825 104.127 27.6485C103.36 27.0173 102.251 26.712 100.82 26.712C99.2517 26.712 97.829 26.877 96.533 27.1961C96.4502 27.2165 96.3721 27.154 96.3721 27.0726V23.5154C96.3721 23.4591 96.4092 23.4109 96.4616 23.3967ZM102.284 33.5534C100.71 33.5534 99.5079 33.7785 98.6934 34.2449C97.8686 34.7171 97.4477 35.4339 97.4405 36.3814L97.4405 36.3824C97.4405 37.5207 97.7771 38.3954 98.4681 38.9823C99.1551 39.5658 100.172 39.8468 101.495 39.8468H101.536C102.798 39.8468 103.768 39.5822 104.423 39.0305C105.083 38.4752 105.403 37.6473 105.403 36.5698V34.1566C105.403 33.9697 105.266 33.8106 105.08 33.7857C104.002 33.6416 103.068 33.5662 102.286 33.5534H102.284Z" fill="#F9FAFC"/>
<path d="M78.2651 24.4603C81.3212 22.134 85.9142 22.3857 89.1803 24.2056C89.2179 24.2265 89.2417 24.2668 89.2417 24.3121V27.581C89.2417 27.6709 89.1458 27.7374 89.0558 27.6994C87.7174 27.1337 86.2202 26.8522 84.5663 26.8522C83.3667 26.8522 82.4489 26.9982 81.8265 27.3027C81.5136 27.4557 81.2711 27.651 81.107 27.8918C80.9423 28.1335 80.8616 28.414 80.8616 28.7283C80.8616 29.5623 81.5264 30.0847 82.271 30.4266C82.9002 30.7156 83.628 30.8949 84.1662 31.0276L84.1665 31.0277C84.2699 31.0531 84.3664 31.0769 84.4538 31.0994C86.5545 31.6394 88.5497 32.4029 89.7816 34.2349C90.4493 35.2271 90.7877 36.4972 90.7877 38.0538C90.7877 40.0775 89.7842 41.5634 88.3287 42.5483C86.8695 43.5357 84.9577 44.017 83.1627 44.017C80.8465 44.017 78.713 43.4755 76.7598 42.3933C76.7215 42.3721 76.6973 42.3311 76.6973 42.2859V38.4394C76.6973 38.3417 76.8097 38.2751 76.9001 38.3306C78.6363 39.396 80.4872 39.9299 82.4508 39.9299C83.1884 39.9299 84.0757 39.9109 84.7797 39.6419C85.1344 39.5064 85.4499 39.3049 85.6763 39.0042C85.9036 38.7024 86.0334 38.3108 86.0334 37.8096C86.0334 36.9556 85.3877 36.3935 84.6456 36.0116C83.9893 35.6739 83.22 35.4574 82.6542 35.2982C82.5768 35.2764 82.5032 35.2557 82.4342 35.2359C80.4373 34.6626 78.4062 34.0677 77.1079 32.4079C76.1999 31.2471 75.9122 29.6994 76.1432 28.2166C76.3742 26.7336 77.122 25.3303 78.2651 24.4603Z" fill="#F9FAFC"/>
<path d="M162.531 22.8112C162.599 22.8094 162.656 22.8647 162.656 22.9349V26.7713C162.656 26.8394 162.601 26.8959 162.532 26.8973C160.624 26.9372 158.965 27.1504 157.558 27.5388C157.396 27.5835 157.286 27.7317 157.286 27.898V43.5662C157.286 43.6353 157.23 43.6912 157.161 43.6912H152.657C152.588 43.6912 152.532 43.6353 152.532 43.5662V25.0376C152.532 24.989 152.559 24.9463 152.601 24.9272C152.921 24.7806 153.339 24.6104 153.854 24.4168C156.557 23.4026 159.653 22.8848 162.531 22.8112Z" fill="#F9FAFC"/>
<path fill-rule="evenodd" clip-rule="evenodd" d="M114.652 25.8717C116.127 24.0175 118.302 22.8084 121.201 22.8084C123.306 22.8084 125.41 23.3227 126.982 24.4233C128.539 25.5145 129.579 27.1848 129.579 29.5248V44.8234C129.579 45.4815 129.522 46.1081 129.402 46.696C129.064 48.3522 128.173 49.5801 126.979 50.4585C125.318 51.6803 123.068 52.2272 120.906 52.2913C120.838 52.2933 120.781 52.2381 120.781 52.1678V48.1811C120.781 48.1148 120.833 48.059 120.901 48.055C121.633 48.0125 122.471 47.9294 123.182 47.6382C123.899 47.3447 124.495 46.8359 124.723 45.9458C124.852 45.4427 124.841 44.8992 124.83 44.3896L124.83 44.3893C124.827 44.2521 124.824 44.1174 124.824 43.9866C124.824 43.7502 124.609 43.5745 124.38 43.6162C123.384 43.7968 122.443 43.8959 121.55 43.9084C118.846 43.9082 116.708 43.0451 115.173 41.5784C113.287 39.7776 112.295 36.8022 112.295 33.6026C112.295 30.8207 113.077 27.8505 114.652 25.8717ZM121.201 27.0133C120.368 27.0133 119.691 27.215 119.145 27.5657C118.599 27.9161 118.191 28.4105 117.888 28.9854C117.212 30.2681 117.049 32.2184 117.049 33.6842C117.049 35.6463 117.376 37.7362 118.49 38.8811C119.213 39.6245 120.255 40.0617 121.713 40.0617C122.668 40.0617 123.601 39.9786 124.519 39.8125C124.697 39.7803 124.824 39.6246 124.824 39.4454V29.4597C124.824 28.9471 124.704 28.5068 124.455 28.1461C124.206 27.7855 123.836 27.5144 123.355 27.3283C122.806 27.1164 122.108 27.0133 121.266 27.0133H121.201Z" fill="#F9FAFC"/>
<path d="M32.4687 9.97643C21.1069 9.97643 11.7501 18.5523 10.4567 29.5966C10.3915 30.1544 10.3425 30.7159 10.3162 31.2837C10.2924 31.7954 10.7079 32.2109 11.218 32.2109H14.5853C15.0955 32.2109 15.5067 31.7952 15.5392 31.284C15.5756 30.714 15.6425 30.1524 15.7284 29.5966C16.9856 21.4515 23.9933 15.2051 32.4687 15.2051C41.8331 15.2051 49.4203 22.8211 49.4203 32.2109C49.4203 41.601 41.8331 49.2087 32.4687 49.2087H7.03063C6.30513 49.2087 5.86748 50.0073 6.28267 50.6046C7.15338 51.8575 8.1097 53.0465 9.14621 54.1587C9.3181 54.3431 9.55928 54.4457 9.81084 54.4457H32.4687C44.7145 54.4457 54.6431 44.4903 54.6429 32.2109C54.6429 19.9318 44.7145 9.97643 32.4687 9.97643Z" fill="#F9FAFC"/>
<path d="M32.4687 0.251709C22.5414 0.251709 13.6701 4.78529 7.80896 11.9066C3.72376 16.8695 1.17972 23.134 0.653149 29.5478C0.65159 29.5643 0.646132 29.5799 0.644832 29.5966C0.599702 30.1567 0.5585 30.7179 0.535079 31.2837C0.513893 31.7955 0.928445 32.2109 1.43861 32.2109H4.80588C5.31604 32.2109 5.72799 31.7955 5.74647 31.2836C5.76691 30.717 5.80549 30.1556 5.85958 29.5966C7.17268 16.0188 18.5831 5.39906 32.4687 5.39906C47.2357 5.39906 59.2078 17.4037 59.2078 32.2109C59.2078 47.0184 47.2357 59.023 32.4687 59.0228H17.9419C17.0259 59.0228 16.7015 60.1662 17.5114 60.5959C21.5217 62.7234 26.0407 64.0084 30.8362 64.2517H32.4687C49.0141 64.2517 62.6154 51.6426 64.2518 35.4852C64.3581 34.4348 64.4197 33.3704 64.4223 32.2925C64.4223 31.1864 64.361 30.0873 64.2518 29.0102C62.6154 12.8527 49.0141 0.251709 32.4687 0.251709Z" fill="#F9FAFC"/>
<path d="M32.4687 19.7825C26.5223 19.7825 21.5664 23.9937 20.3661 29.5966C20.2481 30.1483 20.1596 30.7105 20.1123 31.2845C20.0703 31.795 20.4873 32.2109 20.9975 32.2109H24.3728C24.883 32.2109 25.2903 31.7938 25.3589 31.2862C25.4384 30.6981 25.591 30.1331 25.8003 29.5966C26.8449 26.9194 29.4285 25.0192 32.4687 25.0195C36.4307 25.0195 39.6407 28.2382 39.6409 32.2109C39.6409 36.1836 36.4307 39.4024 32.4687 39.4026H6.69583C6.49861 38.6788 6.31537 37.9259 6.10822 37.2046C5.96277 36.6981 5.50928 36.3481 5.04789 36.3481H1.70944C1.25364 36.3481 0.846794 36.8808 0.934532 37.3855C1.35694 39.6438 1.8622 42.0051 2.77327 44.1228C2.91562 44.4537 3.26406 44.6316 3.59091 44.6316H32.4687C39.3119 44.6316 44.8554 39.0729 44.8554 32.2109C44.8554 25.3492 39.3119 19.7825 32.4687 19.7825Z" fill="#F9FAFC"/>
</svg>
