<svg width="65" height="95" viewBox="0 0 65 95" fill="none" xmlns="http://www.w3.org/2000/svg">
<path d="M32.0116 10.0019C20.6223 10.0019 11.2429 18.6002 9.94642 29.6734C9.88098 30.2327 9.83189 30.7956 9.80549 31.3649C9.7817 31.878 10.1981 32.2946 10.7095 32.2946H14.0849C14.5963 32.2946 15.0085 31.8778 15.0412 31.3652C15.0776 30.7937 15.1447 30.2307 15.2308 29.6734C16.4911 21.507 23.5157 15.2442 32.0116 15.2442C41.3985 15.2442 49.0041 22.8802 49.0041 32.2946C49.0041 41.7092 41.3985 49.3368 32.0116 49.3368H6.51202C5.78477 49.3368 5.34606 50.1375 5.76226 50.7364C6.63506 51.9925 7.5937 53.1846 8.63272 54.2998C8.80501 54.4847 9.04678 54.5875 9.29895 54.5875H32.0116C44.2869 54.5875 54.2395 44.6061 54.2393 32.2946C54.2393 19.9833 44.2869 10.0019 32.0116 10.0019Z" fill="#003DAE"/>
<path d="M32.0116 0.251709C22.0603 0.251709 13.1676 4.79715 7.29224 11.9371C3.19716 16.913 0.646976 23.1939 0.119134 29.6245C0.117571 29.641 0.1121 29.6567 0.110798 29.6734C0.0655587 30.2349 0.0242569 30.7976 0.00077939 31.3649C-0.0204577 31.878 0.395096 32.2946 0.906495 32.2946H4.28189C4.79329 32.2946 5.20624 31.8781 5.22476 31.3648C5.24525 30.7967 5.28392 30.2339 5.33814 29.6734C6.65442 16.06 18.0924 5.41253 32.0116 5.41253C46.8142 5.41253 58.8153 17.4486 58.8153 32.2946C58.8153 47.1408 46.8142 59.1768 32.0116 59.1766H17.4497C16.5315 59.1766 16.2063 60.323 17.0182 60.7538C21.0381 62.8868 25.568 64.1752 30.3751 64.4192H32.0116C48.5969 64.4192 62.231 51.7771 63.8714 35.5774C63.978 34.5243 64.0397 33.4571 64.0423 32.3763C64.0423 31.2674 63.9809 30.1654 63.8714 29.0854C62.231 12.8857 48.5969 0.251709 32.0116 0.251709Z" fill="#003DAE"/>
<path d="M32.0116 19.8336C26.0508 19.8336 21.0829 24.0558 19.8797 29.6734C19.7614 30.2265 19.6727 30.7902 19.6253 31.3657C19.5832 31.8775 20.0012 32.2946 20.5126 32.2946H23.8961C24.4075 32.2946 24.8158 31.8764 24.8846 31.3674C24.9643 30.7778 25.1172 30.2113 25.327 29.6734C26.3741 26.9892 28.964 25.084 32.0116 25.0843C35.9831 25.0843 39.2008 28.3114 39.2011 32.2946C39.2011 36.2777 35.9831 39.5048 32.0116 39.5051H6.17641C5.97872 38.7794 5.79503 38.0245 5.58738 37.3013C5.44158 36.7934 4.987 36.4425 4.5245 36.4425H1.17797C0.721074 36.4425 0.313247 36.9766 0.401197 37.4826C0.824621 39.7469 1.33111 42.1143 2.24437 44.2376C2.38707 44.5694 2.73635 44.7477 3.06399 44.7477H32.0116C38.8712 44.7477 44.4282 39.1745 44.4282 32.2946C44.4282 25.4149 38.8712 19.8336 32.0116 19.8336Z" fill="#003DAE"/>
<path d="M1.8086 77.9878C3.67549 76.5754 6.46951 76.7326 8.45071 77.8299C8.49764 77.8559 8.52613 77.9053 8.52613 77.9588V79.9116C8.52613 80.0211 8.41155 80.0937 8.31023 80.0511C7.51632 79.7176 6.62658 79.5509 5.64111 79.5509C4.20666 79.5509 3.48951 79.8997 3.48951 80.597C3.48951 81.4985 4.93086 81.772 5.59213 81.9412C6.85734 82.2645 8.0809 82.7261 8.83784 83.8449C9.24954 84.4531 9.45531 85.2275 9.45531 86.1681C9.45531 88.6437 6.97882 89.8052 4.79753 89.8052C3.39325 89.8052 2.09844 89.4787 0.91297 88.8259C0.865717 88.7999 0.836709 88.7501 0.836709 88.6964V86.3985C0.836709 86.2792 0.970661 86.2075 1.07279 86.2698C2.10494 86.8994 3.20391 87.2142 4.36971 87.2142C5.26001 87.2142 6.44792 87.1658 6.44792 86.0222C6.44792 85.0907 5.0352 84.7551 4.33904 84.5565C3.14343 84.2153 1.89723 83.855 1.09944 82.8413C-0.0226211 81.4154 0.398871 79.0544 1.8086 77.9878Z" fill="#003DAE"/>
<path d="M46.5647 89.6106C46.4818 89.6106 46.4147 89.5437 46.4147 89.4613V78.3922C46.4147 78.3347 46.4477 78.2822 46.5001 78.2583C46.6946 78.1697 46.9473 78.0674 47.2582 77.9514C48.8914 77.3421 50.761 77.0316 52.4972 76.9875C52.5809 76.9853 52.6494 77.0526 52.6494 77.136V79.4279C52.6494 79.5096 52.5834 79.5761 52.5013 79.5778C51.359 79.6016 50.3687 79.7284 49.5303 79.9584C49.466 79.976 49.4221 80.0346 49.4221 80.101V89.4613C49.4221 89.5437 49.3549 89.6106 49.2721 89.6106H46.5647Z" fill="#003DAE"/>
<path d="M27.6593 76.9858C24.0123 76.9858 22.2313 80.4113 22.2313 83.6583C22.2313 87.1545 24.2125 89.7404 27.8695 89.7404C28.4112 89.7329 28.981 89.6731 29.583 89.5646C29.6758 89.5479 29.7619 89.6184 29.7619 89.7124C29.7619 90.0908 29.7987 90.4949 29.7032 90.8642C29.4443 91.871 28.3539 92.0175 27.4745 92.0683C27.3945 92.073 27.3316 92.1385 27.3316 92.2182V94.5999C27.3316 94.6834 27.4004 94.7508 27.4843 94.7483C29.7351 94.6819 32.1671 93.7561 32.6617 91.3459C32.735 90.9891 32.7693 90.6096 32.7693 90.2123V81.0729C32.7693 78.2175 30.2042 76.9858 27.6593 76.9858ZM27.6593 79.6471C27.6675 79.6471 27.6822 79.6471 27.6984 79.6471C29.0758 79.6471 29.7619 80.1094 29.7619 81.0339V86.9995C29.7619 87.071 29.7111 87.1326 29.6404 87.1453C29.0928 87.2437 28.5365 87.2929 27.9673 87.2929C25.7728 87.2929 25.2387 85.6305 25.2387 83.707C25.2387 82.0541 25.5902 79.6471 27.6593 79.6471Z" fill="#003DAE"/>
<path d="M12.7707 77.3398C12.7061 77.3573 12.6617 77.4161 12.6617 77.4828V79.6079C12.6617 79.7062 12.7553 79.7777 12.8512 79.7542C13.6236 79.5652 14.4726 79.4671 15.4098 79.4671C17.112 79.4671 17.9972 80.1897 18.0613 81.6394C18.0653 81.7304 17.9839 81.8006 17.8933 81.7883C16.4123 81.5871 14.8246 81.5204 13.3805 81.9631C11.7365 82.4671 10.4857 83.8013 10.4857 85.5492C10.4857 88.5325 13.1901 89.8065 15.8401 89.8065C18.4155 89.8065 21.0969 88.5247 21.0969 85.6221V82.2649C21.0969 80.5538 20.6241 79.2425 19.6788 78.3383C17.9304 76.6663 14.9714 76.7445 12.7707 77.3398ZM16.29 83.5542C16.7564 83.5618 17.3144 83.6065 17.9601 83.6924C18.0343 83.7022 18.0895 83.7654 18.0895 83.8399V85.2816C18.0895 86.5385 17.3398 87.1646 15.8401 87.1646C15.8319 87.1646 15.8238 87.1646 15.8157 87.1646C14.2427 87.1646 13.4538 86.4996 13.4538 85.1696C13.4621 84.0911 14.4073 83.5542 16.29 83.5542Z" fill="#003DAE"/>
<path d="M36.3747 77.3398C36.3101 77.3573 36.2657 77.416 36.2657 77.4827V79.6079C36.2657 79.7062 36.3594 79.7777 36.4553 79.7542C37.2282 79.5652 38.0815 79.4671 39.0187 79.4671C40.7209 79.4671 41.6016 80.1897 41.6654 81.6394C41.6694 81.7304 41.5879 81.8006 41.4973 81.7883C40.0176 81.5873 38.4323 81.5208 36.9894 81.9631C35.3288 82.4722 34.0895 83.7816 34.0895 85.5492C34.0895 88.529 36.7989 89.8065 39.4441 89.8065C42.0241 89.8065 44.7009 88.5282 44.7009 85.6221V82.2649C44.7009 80.5538 44.2282 79.2425 43.2827 78.3383C41.5347 76.6664 38.5752 76.7434 36.3747 77.3398ZM39.8988 83.5542C40.3653 83.5618 40.919 83.6065 41.5642 83.6923C41.6384 83.7022 41.6935 83.7654 41.6935 83.8399V85.2816C41.6935 86.5385 40.9438 87.1646 39.4441 87.1646C39.436 87.1646 39.4279 87.1646 39.4197 87.1646C37.8468 87.1646 37.0627 86.4996 37.0627 85.1696C37.0709 84.0911 38.0162 83.5542 39.8988 83.5542Z" fill="#003DAE"/>
<path d="M55.1733 77.3398C55.1087 77.3573 55.0643 77.416 55.0643 77.4827V79.6079C55.0643 79.7062 55.158 79.7777 55.2539 79.7542C56.0269 79.5652 56.8802 79.4671 57.8174 79.4671C59.5195 79.4671 60.4004 80.1897 60.4642 81.6394C60.4682 81.7304 60.3867 81.8006 60.2961 81.7883C58.8163 81.5873 57.231 81.5209 55.788 81.9631C54.141 82.4681 52.8883 83.7747 52.8883 85.5492C52.8883 88.529 55.5977 89.8065 58.2429 89.8065C60.8229 89.8065 63.4997 88.5282 63.4997 85.6221V82.2649C63.4997 80.5538 63.027 79.2425 62.0815 78.3383C60.3334 76.6663 57.3739 76.7434 55.1733 77.3398ZM58.6976 83.5542C59.1639 83.5618 59.7177 83.6065 60.363 83.6923C60.4371 83.7022 60.4923 83.7654 60.4923 83.8399V85.2816C60.4923 86.5385 59.7424 87.1646 58.2429 87.1646C58.2348 87.1646 58.2266 87.1646 58.2185 87.1646C56.6456 87.1646 55.8614 86.4996 55.8614 85.1696C55.8696 84.0911 56.815 83.5542 58.6976 83.5542Z" fill="#003DAE"/>
</svg>
