<svg width="65" height="65" viewBox="0 0 65 65" fill="none" xmlns="http://www.w3.org/2000/svg">
<path d="M32.0116 10.473C20.6223 10.473 11.2429 19.0489 9.94642 30.0932C9.88098 30.651 9.83189 31.2125 9.80549 31.7803C9.7817 32.292 10.1981 32.7075 10.7095 32.7075H14.0849C14.5963 32.7075 15.0085 32.2918 15.0412 31.7806C15.0776 31.2106 15.1447 30.649 15.2308 30.0932C16.4911 21.9481 23.5157 15.7017 32.0116 15.7017C41.3985 15.7017 49.0041 23.3177 49.0041 32.7075C49.0041 42.0976 41.3985 49.7052 32.0116 49.7052H6.51202C5.78477 49.7052 5.34606 50.5038 5.76226 51.1012C6.63506 52.354 7.5937 53.5431 8.63272 54.6553C8.80501 54.8397 9.04678 54.9423 9.29895 54.9423H32.0116C44.2869 54.9423 54.2395 44.9869 54.2393 32.7075C54.2393 20.4284 44.2869 10.473 32.0116 10.473Z" fill="#003DAE"/>
<path d="M32.0116 0.748291C22.0603 0.748291 13.1676 5.28187 7.29224 12.4032C3.19716 17.3661 0.646976 23.6306 0.119134 30.0444C0.117571 30.0608 0.1121 30.0765 0.110798 30.0932C0.0655587 30.6533 0.0242569 31.2144 0.00077939 31.7803C-0.0204577 32.2921 0.395096 32.7075 0.906495 32.7075H4.28189C4.79329 32.7075 5.20624 32.2921 5.22476 31.7802C5.24525 31.2136 5.28392 30.6522 5.33814 30.0932C6.65442 16.5154 18.0924 5.89565 32.0116 5.89565C46.8142 5.89565 58.8153 17.9003 58.8153 32.7075C58.8153 47.5149 46.8142 59.5196 32.0116 59.5194H17.4497C16.5315 59.5194 16.2063 60.6628 17.0182 61.0924C21.0381 63.2199 25.568 64.505 30.3751 64.7483H32.0116C48.5969 64.7483 62.231 52.1392 63.8714 35.9817C63.978 34.9314 64.0397 33.867 64.0423 32.7891C64.0423 31.683 63.9809 30.5839 63.8714 29.5068C62.231 13.3493 48.5969 0.748291 32.0116 0.748291Z" fill="#003DAE"/>
<path d="M32.0116 20.279C26.0508 20.279 21.0829 24.4902 19.8797 30.0932C19.7614 30.6448 19.6727 31.207 19.6253 31.781C19.5832 32.2916 20.0012 32.7075 20.5126 32.7075H23.8961C24.4075 32.7075 24.8158 32.2904 24.8846 31.7828C24.9643 31.1947 25.1172 30.6297 25.327 30.0932C26.3741 27.416 28.964 25.5158 32.0116 25.5161C35.9831 25.5161 39.2008 28.7348 39.2011 32.7075C39.2011 36.6802 35.9831 39.8989 32.0116 39.8992H6.17641C5.97872 39.1754 5.79503 38.4225 5.58738 37.7012C5.44158 37.1946 4.987 36.8447 4.5245 36.8447H1.17797C0.721074 36.8447 0.313247 37.3774 0.401197 37.882C0.824621 40.1404 1.33111 42.5016 2.24437 44.6194C2.38707 44.9503 2.73635 45.1281 3.06399 45.1281H32.0116C38.8712 45.1281 44.4282 39.5695 44.4282 32.7075C44.4282 25.8458 38.8712 20.279 32.0116 20.279Z" fill="#003DAE"/>
</svg>
