<svg width="65" height="65" viewBox="0 0 65 65" fill="none" xmlns="http://www.w3.org/2000/svg">
<path d="M32.6781 10.473C21.2964 10.473 11.9232 19.0489 10.6276 30.0932C10.5622 30.651 10.5131 31.2125 10.4868 31.7803C10.463 32.292 10.8791 32.7075 11.3902 32.7075H14.7634C15.2744 32.7075 15.6864 32.2918 15.719 31.7806C15.7554 31.2106 15.8225 30.649 15.9085 30.0932C17.1679 21.9481 24.1879 15.7017 32.6781 15.7017C42.0589 15.7017 49.6595 23.3177 49.6595 32.7075C49.6595 42.0976 42.0589 49.7052 32.6781 49.7052H7.19546C6.46869 49.7052 6.03027 50.5038 6.44619 51.1012C7.31842 52.354 8.27642 53.5431 9.31475 54.6553C9.48694 54.8397 9.72854 54.9423 9.98054 54.9423H32.6781C44.9454 54.9423 54.8914 44.9869 54.8912 32.7075C54.8912 20.4284 44.9454 10.473 32.6781 10.473Z" fill="#F9FAFC"/>
<path d="M32.6781 0.748291C22.7334 0.748291 13.8466 5.28187 7.97516 12.4032C3.88279 17.3661 1.33429 23.6306 0.8068 30.0444C0.805238 30.0608 0.79977 30.0765 0.798468 30.0932C0.753259 30.6533 0.711985 31.2144 0.688523 31.7803C0.6673 32.2921 1.08258 32.7075 1.59364 32.7075H4.96681C5.47787 32.7075 5.89054 32.2921 5.90905 31.7802C5.92953 31.2136 5.96817 30.6522 6.02235 30.0932C7.33776 16.5154 18.7682 5.89565 32.6781 5.89565C47.471 5.89565 59.4641 17.9003 59.4641 32.7075C59.4641 47.5149 47.471 59.5196 32.6781 59.5194H18.1259C17.2083 59.5194 16.8833 60.6628 17.6947 61.0924C21.7119 63.2199 26.2389 64.505 31.0427 64.7483H32.6781C49.2525 64.7483 62.8776 52.1392 64.5169 35.9817C64.6234 34.9314 64.6851 33.867 64.6877 32.7891C64.6877 31.683 64.6263 30.5839 64.5169 29.5068C62.8776 13.3493 49.2525 0.748291 32.6781 0.748291Z" fill="#F9FAFC"/>
<path d="M32.6781 20.279C26.7213 20.279 21.7568 24.4902 20.5543 30.0932C20.4361 30.6448 20.3474 31.207 20.3001 31.781C20.258 32.2916 20.6757 32.7075 21.1868 32.7075H24.568C25.0791 32.7075 25.4872 32.2904 25.5559 31.7828C25.6355 31.1947 25.7884 30.6297 25.998 30.0932C27.0444 27.416 29.6326 25.5158 32.6781 25.5161C36.647 25.5161 39.8626 28.7348 39.8629 32.7075C39.8629 36.6802 36.647 39.8989 32.6781 39.8992H6.86007C6.66251 39.1754 6.47894 38.4225 6.27144 37.7012C6.12572 37.1946 5.67145 36.8447 5.20925 36.8447H1.86494C1.40834 36.8447 1.00078 37.3774 1.08868 37.882C1.51182 40.1404 2.01797 42.5016 2.93063 44.6194C3.07324 44.9503 3.42229 45.1281 3.74971 45.1281H32.6781C39.5333 45.1281 45.0865 39.5695 45.0865 32.7075C45.0865 25.8458 39.5333 20.279 32.6781 20.279Z" fill="#F9FAFC"/>
</svg>
