<svg width="65" height="65" viewBox="0 0 65 65" fill="none" xmlns="http://www.w3.org/2000/svg">
<path d="M32.3449 10.473C20.9632 10.473 11.59 19.0489 10.2943 30.0932C10.2289 30.651 10.1799 31.2125 10.1535 31.7803C10.1297 32.292 10.5459 32.7075 11.057 32.7075H14.4301C14.9412 32.7075 15.3531 32.2918 15.3857 31.7806C15.4221 31.2106 15.4892 30.649 15.5752 30.0932C16.8347 21.9481 23.8546 15.7017 32.3449 15.7017C41.7257 15.7017 49.3262 23.3177 49.3262 32.7075C49.3262 42.0976 41.7257 49.7052 32.3449 49.7052H6.86221C6.13544 49.7052 5.69702 50.5038 6.11294 51.1012C6.98517 52.354 7.94317 53.5431 8.9815 54.6553C9.15368 54.8397 9.39529 54.9423 9.64729 54.9423H32.3449C44.6122 54.9423 54.5582 44.9869 54.5579 32.7075C54.5579 20.4284 44.6122 10.473 32.3449 10.473Z" fill="url(#paint0_radial_45_11056)"/>
<path d="M32.3449 0.748291C22.4002 0.748291 13.5133 5.28187 7.64191 12.4032C3.54954 17.3661 1.00104 23.6306 0.473548 30.0444C0.471986 30.0608 0.466518 30.0765 0.465216 30.0932C0.420008 30.6533 0.378733 31.2144 0.355271 31.7803C0.334048 32.2921 0.749327 32.7075 1.26039 32.7075H4.63356C5.14462 32.7075 5.55729 32.2921 5.57579 31.7802C5.59628 31.2136 5.63492 30.6522 5.6891 30.0932C7.00451 16.5154 18.4349 5.89565 32.3449 5.89565C47.1378 5.89565 59.1309 17.9003 59.1309 32.7075C59.1309 47.5149 47.1378 59.5196 32.3449 59.5194H17.7926C16.875 59.5194 16.5501 60.6628 17.3614 61.0924C21.3787 63.2199 25.9056 64.505 30.7095 64.7483H32.3449C48.9193 64.7483 62.5444 52.1392 64.1837 35.9817C64.2902 34.9314 64.3519 33.867 64.3545 32.7891C64.3545 31.683 64.293 30.5839 64.1837 29.5068C62.5444 13.3493 48.9193 0.748291 32.3449 0.748291Z" fill="url(#paint1_radial_45_11056)"/>
<path d="M32.3449 20.279C26.3881 20.279 21.4235 24.4902 20.2211 30.0932C20.1028 30.6448 20.0141 31.207 19.9668 31.781C19.9247 32.2916 20.3425 32.7075 20.8535 32.7075H24.2348C24.7458 32.7075 25.1539 32.2904 25.2227 31.7828C25.3023 31.1947 25.4551 30.6297 25.6647 30.0932C26.7112 27.416 29.2993 25.5158 32.3449 25.5161C36.3138 25.5161 39.5294 28.7348 39.5297 32.7075C39.5297 36.6802 36.3138 39.8989 32.3449 39.8992H6.52682C6.32926 39.1754 6.14569 38.4225 5.93818 37.7012C5.79247 37.1946 5.33819 36.8447 4.876 36.8447H1.53169C1.07509 36.8447 0.667532 37.3774 0.755424 37.882C1.17857 40.1404 1.68472 42.5016 2.59738 44.6194C2.73999 44.9503 3.08903 45.1281 3.41646 45.1281H32.3449C39.2 45.1281 44.7533 39.5695 44.7533 32.7075C44.7533 25.8458 39.2 20.279 32.3449 20.279Z" fill="url(#paint2_radial_45_11056)"/>
<defs>
<radialGradient id="paint0_radial_45_11056" cx="0" cy="0" r="1" gradientUnits="userSpaceOnUse" gradientTransform="translate(55.2585 10.1233) rotate(135.019) scale(64.0177 65.6009)">
<stop offset="0.0665658" stop-color="#FCE300"/>
<stop offset="0.290127" stop-color="#2FFF86"/>
<stop offset="0.640574" stop-color="#0096E1"/>
<stop offset="0.83191" stop-color="#0057F2"/>
<stop offset="1" stop-color="#004BD0"/>
</radialGradient>
<radialGradient id="paint1_radial_45_11056" cx="0" cy="0" r="1" gradientUnits="userSpaceOnUse" gradientTransform="translate(55.2585 10.1233) rotate(135.019) scale(64.0177 65.6009)">
<stop offset="0.0665658" stop-color="#FCE300"/>
<stop offset="0.290127" stop-color="#2FFF86"/>
<stop offset="0.640574" stop-color="#0096E1"/>
<stop offset="0.83191" stop-color="#0057F2"/>
<stop offset="1" stop-color="#004BD0"/>
</radialGradient>
<radialGradient id="paint2_radial_45_11056" cx="0" cy="0" r="1" gradientUnits="userSpaceOnUse" gradientTransform="translate(55.2585 10.1233) rotate(135.019) scale(64.0177 65.6009)">
<stop offset="0.0665658" stop-color="#FCE300"/>
<stop offset="0.290127" stop-color="#2FFF86"/>
<stop offset="0.640574" stop-color="#0096E1"/>
<stop offset="0.83191" stop-color="#0057F2"/>
<stop offset="1" stop-color="#004BD0"/>
</radialGradient>
</defs>
</svg>
